<svg width="103" height="102" viewBox="0 0 103 102" fill="none" xmlns="http://www.w3.org/2000/svg">
<g clip-path="url(#clip0_22_6)">
<path d="M22.4025 91.9402H70.1688L84.46 72.5195L84.975 72.24L86.2625 78.5273L83.6875 81.0423L82.1425 82.8586L81.1125 84.6749L80.5975 86.631L80.5156 88.2982L80.4701 90.7433L80.7659 93.1144L82.1315 96.1771L84.5441 99.0175L86.2625 101.022L90.125 102H93.4725L97.7213 100.463L100.296 97.6686L102.227 94.4551L103 89.8445L102.614 87.1898L101.713 84.6749L100.811 82.4394L98.88 80.3437L96.4338 78.5273L93.3438 77.4096L92.0563 77.2699L88.3225 61.2024L88.2995 60.512L89.483 60.0674L88.3905 54.2385L87.116 54.1397L86.7973 53.6457L79.6962 21.5373L78.7403 20.8457L76.1001 21.1915L74.78 21.9325L74.3703 23.4144L74.689 26.1806L75.1897 28.9963L76.1001 32.8987L76.965 36.6529L77.6478 40.012L78.2395 42.8771L79.1044 46.3843L79.6507 49.4469L80.288 52.1144L80.9707 55.0289L81.0618 55.8686H80.1059L79.8327 57.0542L81.0163 61.8951L82.3363 62.2409L83.1102 63.9698L81.4715 66.4397L77.765 70.9826L74.675 76.8507L66.95 87.1898L28.8959 87.5325L28.1962 83.4175L25.1062 77.1302L22.5312 74.4755L15.5189 70.4407L8.25026 69.9636L4.12 71.8209L5.665 75.5933L8.11125 74.3358H12.4887L16.7375 75.733L19.57 77.5493L21.3725 79.5054L23.175 82.5791L24.205 85.3735L24.4625 86.7707L24.5912 87.609L22.4025 87.4693L21.5012 85.0941L20.085 82.2997L17.8962 79.6451L14.6775 77.8288L11.0725 77.2699L8.4975 77.8288L5.665 78.8068L3.73375 80.2039L1.93125 82.4394L0.514999 85.0941L0 87.3296V89.7047V92.3594L0.772498 95.014L1.545 96.8303L3.47625 99.2055L5.27875 100.463L7.72499 101.72L10.1712 102H13.2612L17.1237 100.463L18.9262 98.7864L20.3425 96.6906L21.2437 94.3154L22.4025 91.9402Z" fill="white"/>
<path d="M74.2338 17.2398L76.2822 16.7952L77.1016 16.6964L77.5568 15.906L77.0561 14.3253L76.6919 12.794L76.1457 10.8181V10.2747L76.5099 10.0277L76.9195 10.1265L77.5568 10.2253H78.1486L78.4217 10.0771L79.059 9.43495L79.5597 8.74339L79.9238 7.70603L79.6507 6.61929L79.241 5.92772L78.4672 5.33495L77.8299 5.03856L77.1926 4.93977L76.3733 4.64338L75.4629 4.49519L75.0987 4.64338L74.7801 4.2976L74.507 4.3964L73.6876 3.45784L71.8213 3.30964L70.8654 2.66748L70.2736 2.02531L69.2266 1.53134L67.8155 0.938569L66.8596 0.444582L65.3574 0L64.4015 0.296395L63.4001 1.03735L62.8083 1.72892L62.6263 2.56869L62.7628 3.65543L63.309 4.59399L64.0374 5.33495L64.9478 5.68073L65.6306 6.07592L66.7686 6.56989L67.6334 6.91567L68.3618 7.01447H69.4998L70.0915 6.91567L70.7288 7.45905L71.5482 7.80483L71.7302 8.69399L71.8213 9.38556L72.0944 10.3735L72.3675 11.7072L72.5951 12.794L72.8683 13.9301L73.1414 15.1157L73.46 16.2024L73.7331 16.8446L74.2338 17.2398Z" fill="white"/>
<path d="M75.2353 75.5783L74.4159 74.8867L73.9607 75.3807L73.3234 75.8747L72.0489 76.5662L71.2295 77.4554L70.137 78.1469L69.0446 79.0361L67.4969 80.1228L66.8596 80.4192L66.2223 80.8144L65.2209 81.1108L63.5821 81.6048L62.1255 81.7036L61.7614 81.8024L60.8022 81.3217L59.8366 81.0772L59.225 80.7977L58.7422 80.4834L58.1306 79.9594L57.6478 79.5752L56.8432 78.7718L56.2638 78.0732L55.781 76.8158L55.4913 75.6282L55.2338 74.5454V73.3578L55.2981 72.3797L55.5556 70.8778L56.1028 69.9347L56.6178 68.9217L57.3581 68.0485L58.2272 67.2451L58.9031 66.6513L59.7722 66.1623L60.4803 65.7432L61.285 65.1843L62.154 64.8001L63.0231 64.3111L63.9565 63.7522L64.7934 63.2981L65.9522 62.2502L66.6603 61.4818L67.304 60.7133L67.8512 59.6655L68.3984 58.5128L68.8168 57.2553L68.8491 56.2773L68.7203 54.9849L68.8169 53.5179L68.5594 52.4001L68.3663 51.1776L67.8191 50.479L67.2719 49.4311L66.8213 48.8723L66.0488 48.3833L64.89 48.1038L63.9244 47.999L63.2806 48.2086L62.6047 48.4531L62.1219 48.6976L61.6713 48.977L61.3494 49.1866L61.0919 49.3264L60.8666 49.7455L60.9631 50.2694L61.0597 50.7934L61.4781 51.1427L61.3816 51.981L60.8666 52.5748L59.1284 54.3213H58.9675L58.6135 54.6356L58.71 55.0198L57.2616 57.5697L56.1994 59.5607L50.6309 62.9139L49.601 63.5426L48.3456 62.9139L46.511 60.6784L46.1247 60.6086L39.7838 64.2412L39.1722 64.4159L38.786 64.1714L38.1744 63.5427L38.11 62.7043L38.2388 62.1455L38.6572 61.866L38.9469 61.6215V61.2722L38.5285 61.1325L38.1422 61.2024L37.4019 61.5167L36.9191 61.8311L36.6938 62.1454L36.2431 62.2153L35.8247 62.1105H35.5028L35.0844 61.5167L34.8591 61.0277L34.666 60.6784L34.8913 60.2243L35.2453 59.8401L35.535 59.4558L35.9213 59.2812L36.4685 59.0716L36.9191 58.862L37.4663 58.5128L38.1744 58.1285L39.1722 57.5347L39.8481 57.0806L40.8781 56.6266L41.2966 56.3821L43.4853 54.9499L43.3566 52.7145L42.906 51.2474L43.6463 49.8153L49.44 46.532L53.2381 46.7415L56.5213 45.2745L57.2938 45.4841L58.0663 46.1128L59.1606 46.8813H59.8044L61.0275 46.2525L63.2806 45.2046L64.5681 45.0649H65.8556L67.0144 45.7635L68.4306 46.8114L69.4606 47.9291L70.1044 49.3962L70.7481 50.7934L71.1988 52.7494L71.3919 54.426L71.4562 56.2423L71.07 58.408L70.6194 59.7353L69.3319 61.9708L67.2719 64.5555L65.1475 66.302L62.4437 67.8389L60.3837 68.9566L59.2894 69.5854L58.2594 71.1921L57.68 72.7989L57.8731 74.4056L58.1306 76.222L59.3537 77.6191L61.2206 78.4574L63.0875 78.667L65.0831 78.3177L66.7569 77.4096L68.495 76.0822L72.2931 73.2879L74.2887 72.1003L75.705 71.6811L77.3143 71.6113L75.2353 75.5783Z" fill="white"/>
</g>
<defs>
<clipPath id="clip0_22_6">
<rect width="103" height="102" fill="white"/>
</clipPath>
</defs>
</svg>
